# xmcd
#
# Track frame offsets: 
#        150
#        9890
#        22810
#        35290
#        47680
#        61990
#        77765
#        95110
#        113195
#        126915
#        141285
#        153975
#        168215
#        180530
#        193880
#        205145
#        222405
#        234060
#        247850
#        260775
#        272510
#        287435
#        299670
#        314270
#        325585
#        339680
#
# Disc length: 4530 seconds
#
# Revision: 0
# Processed by: cddbd v1.5.2PL0 Copyright (c) Steve Scherf et al.
# Submitted via: ExactAudioCopy v0.95b4
#
DISCID=7011b01a
DTITLE=Otis Redding - Otis! - The Definitive Otis Redding (Disc-2)
DYEAR=1993
DGENRE=Soul
TTITLE0=Respect
TTITLE1=You Don't Miss Your Water
TTITLE2=Satisfaction
TTITLE3=I Can't Turn You Loose
TTITLE4=Cupid
TTITLE5=Just One More Day
TTITLE6=Good To Me
TTITLE7=Cigarettes And Coffee
TTITLE8=Chain Gang
TTITLE9=My Lover's Prayer
TTITLE10=It's Growing
TTITLE11=I'm Coming Home
TTITLE12=Fa-Fa-Fa-Fa-Fa (Sad Song)
TTITLE13=I'm Sick Y'all
TTITLE14=Sweet Lorene
TTITLE15=Try A Little Tenderness
TTITLE16=Day Tripper
TTITLE17=Tramp (Otis and Carla)
TTITLE18=Knock on Wood (Otis and Carla)
TTITLE19=Lovey Dovey (Otis and Carla)
TTITLE20=New Year's Resolution (Otis and Carla)
TTITLE21=You Left the Water Running
TTITLE22=Trick Or Treat
TTITLE23=Merry Christmas, Baby
TTITLE24=White Christmas
TTITLE25=Things Go Better With Coke (A Man And A Woman)
EXTD=
EXTT0=
EXTT1=
EXTT2=
EXTT3=
EXTT4=
EXTT5=
EXTT6=
EXTT7=
EXTT8=
EXTT9=
EXTT10=
EXTT11=
EXTT12=
EXTT13=
EXTT14=
EXTT15=
EXTT16=
EXTT17=
EXTT18=
EXTT19=
EXTT20=
EXTT21=
EXTT22=
EXTT23=
EXTT24=
EXTT25=
PLAYORDER=
